<?xml version="1.0" encoding="UTF-8" standalone="no"?>
<svg
   width="23.999357"
   height="14.162001"
   viewBox="0 0 23.999357 14.162001"
   version="1.1"
   id="svg15"
   sodipodi:docname="yoda.svg"
   inkscape:version="1.1.2 (0a00cf5339, 2022-02-04, custom)"
   xmlns:inkscape="http://www.inkscape.org/namespaces/inkscape"
   xmlns:sodipodi="http://sodipodi.sourceforge.net/DTD/sodipodi-0.dtd"
   xmlns="http://www.w3.org/2000/svg"
   xmlns:svg="http://www.w3.org/2000/svg"
   xmlns:rdf="http://www.w3.org/1999/02/22-rdf-syntax-ns#"
   xmlns:cc="http://creativecommons.org/ns#"
   xmlns:dc="http://purl.org/dc/elements/1.1/">
  <defs
     id="defs19" />
  <sodipodi:namedview
     id="namedview17"
     pagecolor="#ffffff"
     bordercolor="#666666"
     borderopacity="1.0"
     inkscape:pageshadow="2"
     inkscape:pageopacity="0.0"
     inkscape:pagecheckerboard="0"
     showgrid="false"
     inkscape:zoom="4.7657658"
     inkscape:cx="110.89509"
     inkscape:cy="31.89414"
     inkscape:window-width="1920"
     inkscape:window-height="1009"
     inkscape:window-x="-8"
     inkscape:window-y="-8"
     inkscape:window-maximized="1"
     inkscape:current-layer="svg15"
     fit-margin-top="0"
     fit-margin-left="0"
     fit-margin-right="0"
     fit-margin-bottom="0" />
  <!-- Generator: Sketch 63.1 (92452) - https://sketch.com -->
  <title
     id="title2">yoda</title>
  <desc
     id="desc4">Created with Sketch.</desc>
  <g
     id="Page-1"
     stroke="none"
     stroke-width="1"
     fill="none"
     fill-rule="evenodd"
     transform="matrix(0.10814347,0,0,0.10814347,0,0.00113983)">
    <g
       id="yoda"
       transform="translate(0,-1)"
       fill="#000000">
      <path
         d="M 105,1.946 C 101.86,2.918 95.567,6.424 91,9.745 84.923,14.163 79.202,21.24 75.287,29.182 71.632,36.595 70,38.568 70,35.573 c 0,-1.768 -4.903,-5.751 -6.139,-4.987 -0.497,0.307 0.019,1.314 1.148,2.236 2.212,1.809 3.987,9.178 2.211,9.178 -0.573,0 -2.178,-1.35 -3.567,-3 -4.35,-5.17 -5.11,-3.426 -1.089,2.499 l 2.564,3.778 -3.314,-2.204 c -4.091,-2.722 -9.877,-5.343 -10.475,-4.746 -0.244,0.245 1.042,1.367 2.858,2.493 1.817,1.126 4.857,3.656 6.757,5.622 l 3.454,3.574 -5.199,-2.508 C 53.473,44.741 53,44.615 53,45.847 c 0,0.466 1.013,1.341 2.25,1.944 1.951,0.952 1.785,1.019 -1.25,0.508 C 48.647,47.396 41.259,44.278 35.606,40.535 24.151,32.95 15.49,29.907 9.579,31.391 6.472,32.171 0,37.696 0,39.568 0,41.279 3.129,43 6.238,43 c 3.955,0 11.427,5.523 15.156,11.201 1.914,2.914 4.723,8.361 6.243,12.104 2.454,6.044 3.47,7.309 9.084,11.316 9.709,6.928 14.428,8.702 21.15,7.949 5.846,-0.654 5.885,-0.394 0.466,3.121 -1.557,1.01 -1.592,1.2 -0.227,1.25 0.886,0.033 3.269,-1.066 5.295,-2.441 C 67.647,84.621 68,84.53 68,86.313 c 0,1.424 4.575,6.046 7,7.072 0.825,0.349 0.038,0.416 -1.75,0.15 -2.843,-0.424 -3.247,-0.206 -3.226,1.74 0.075,6.756 4.149,15.725 7.143,15.725 0.786,0 1.874,0.839 9.762,7.528 8.46,7.174 13.215,10.634 16.499,12.006 4.508,1.884 13.644,1.881 18.159,-0.006 2.98,-1.245 11.895,-7.925 20.687,-15.501 1.224,-1.055 3.801,-2.972 5.726,-4.26 4.198,-2.809 5.889,-6.034 6.684,-12.749 l 0.595,-5.024 -3.389,0.53 c -2.681,0.419 -2.949,0.332 -1.278,-0.414 2.085,-0.932 5.836,-5.08 6.699,-7.41 0.313,-0.843 1.654,-0.531 4.515,1.05 4.593,2.539 7.779,3.022 4.733,0.718 -1.878,-1.42 -1.862,-1.469 0.5,-1.491 2.614,-0.025 8.56,-3.19 17.311,-9.214 4.415,-3.039 6,-4.957 8.486,-10.269 C 198.815,53.761 209.371,43 215.904,43 c 5.449,0 7.913,-4.097 4.346,-7.224 -8.203,-7.193 -17.255,-6.228 -33.48,3.569 -8.712,5.26 -12.434,7.17 -15.77,8.094 -1.845,0.511 -2.115,0.427 -1.029,-0.319 3.364,-2.312 0.064,-1.797 -5.493,0.857 l -5.978,2.855 6.954,-6.416 c 7.359,-6.79 7.307,-8.421 -0.109,-3.416 -2.445,1.65 -4.634,3 -4.865,3 -0.231,0 0.697,-1.645 2.061,-3.656 3.249,-4.788 2.282,-5.565 -1.769,-1.422 -1.763,1.803 -3.359,2.817 -3.547,2.253 -0.661,-1.983 1.853,-9.119 3.546,-10.067 0.942,-0.527 1.393,-1.278 1.002,-1.668 -1.205,-1.206 -5.858,2.538 -7.314,5.885 -0.84,1.933 -1.396,2.477 -1.42,1.392 -0.021,-0.981 -1.217,-4.108 -2.656,-6.949 C 140.284,9.839 119.888,-2.664 105,1.946 m -1.264,4.516 C 91.838,11.023 77.76,27.906 75.447,40.387 l -0.721,3.887 2.225,-2.225 C 79.985,39.015 85.143,37 89.876,37 c 2.185,0 6.095,-1.086 8.782,-2.439 4.195,-2.113 5.51,-2.325 9.842,-1.586 2.937,0.5 6.808,0.461 9.382,-0.096 4.774,-1.031 10.049,0.127 12.16,2.672 0.662,0.797 2.892,1.449 4.955,1.449 6.023,0 9.798,1.08 12.489,3.574 2.11,1.956 2.508,2.057 2.474,0.628 C 149.897,38.54 145.867,30.033 141.78,23.934 132.563,10.181 115.034,2.131 103.736,6.462 M 13.593,36.398 c 8.95,2.315 16.737,7.231 23.672,14.947 5.932,6.6 11.209,10.243 17.61,12.159 1.625,0.486 2.159,0.361 1.691,-0.397 -0.401,-0.649 0.065,-1.13 1.125,-1.163 0.995,-0.031 -0.09,-0.827 -2.411,-1.77 -2.322,-0.943 -4.797,-2.326 -5.5,-3.073 -1.335,-1.418 -0.914,-1.379 6.22,0.565 2.329,0.634 2.398,0.555 1,-1.166 -1.398,-1.721 -1.33,-1.799 1,-1.149 1.375,0.383 3.85,0.987 5.5,1.342 2.657,0.571 2.85,0.462 1.692,-0.946 -0.719,-0.875 -3.194,-1.905 -5.5,-2.289 -9.063,-1.51 -17.663,-4.948 -28.173,-11.265 -9.908,-5.954 -11.568,-6.624 -17,-6.856 L 8.5,35.081 13.593,36.398 M 98.322,37.75 C 95.995,38.987 92.338,40 90.195,40 84.412,40 80.13,41.847 78.47,45.059 c -2.049,3.962 -1.974,4.03 2.656,2.397 7.502,-2.647 15.538,-1.619 18.476,2.365 0.815,1.105 3.888,1.618 11.8,1.97 l 10.699,0.476 4.363,-3.134 c 3.321,-2.385 5.423,-3.133 8.8,-3.133 5.107,0 10.402,1.571 13.119,3.892 1.785,1.525 1.843,1.478 1.106,-0.892 -1.994,-6.413 -5.978,-8.997 -13.888,-9.004 -2.452,-0.002 -5.508,-0.873 -7.601,-2.166 -3.002,-1.854 -5.062,-2.174 -14.474,-2.246 -9.558,-0.073 -11.519,0.206 -15.204,2.166 m 102.429,-1.751 c -1.511,0.455 -5.737,2.554 -9.39,4.664 -3.654,2.11 -8.492,4.891 -10.752,6.178 -2.26,1.288 -7.7,3.433 -12.09,4.767 -4.389,1.333 -8.663,3.108 -9.499,3.943 -1.358,1.358 -1.148,1.394 1.981,0.339 1.924,-0.649 3.99,-1.561 4.591,-2.026 2.162,-1.676 2.271,0.427 0.115,2.227 -2.745,2.292 -1.431,2.375 4.669,0.297 6.286,-2.142 7.046,-1.053 1.234,1.771 -3.676,1.786 -4.305,2.432 -3.052,3.133 2.698,1.51 8.373,-2.88 17.34,-13.413 3.964,-4.656 15.203,-10.558 21.762,-11.428 4.44,-0.589 5.399,-0.392 7.289,1.498 1.197,1.197 2.71,1.992 3.364,1.767 0.653,-0.225 -0.388,-1.376 -2.313,-2.559 -3.666,-2.251 -10.013,-2.733 -15.249,-1.158 m 6.749,5.944 c -4.898,2.207 -8.764,5.733 -10.977,10.013 -2.031,3.927 -1.429,5.076 0.843,1.608 2.867,-4.375 7.468,-8.532 12.27,-11.085 5.35,-2.845 3.834,-3.225 -2.136,-0.536 M 15.733,44.124 c 0.679,0.684 1.486,0.991 1.793,0.683 0.308,-0.308 -0.247,-0.867 -1.233,-1.243 -1.425,-0.542 -1.54,-0.428 -0.56,0.56 m 51.708,3.321 C 68.509,48.3 69.821,49 70.358,49 71.628,49 71.061,48.538 68,47.08 65.643,45.958 65.611,45.978 67.441,47.445 m 13.87,11.63 c -2.305,1.141 -4.756,2.756 -5.448,3.59 -0.692,0.834 0.94,0.289 3.626,-1.211 2.687,-1.5 6.038,-3.077 7.448,-3.505 2.044,-0.619 2.158,-0.794 0.563,-0.862 -1.1,-0.047 -3.885,0.848 -6.189,1.988 m 28.278,-1.219 c -0.291,0.47 0.583,0.643 1.941,0.383 1.359,-0.26 2.47,-0.645 2.47,-0.856 0,-0.773 -3.899,-0.356 -4.411,0.473 m 28.522,0.106 c 1.436,0.435 4.763,2.052 7.393,3.593 2.655,1.556 4.589,2.223 4.348,1.5 -0.633,-1.899 -8.902,-6.069 -11.837,-5.969 l -2.515,0.086 2.611,0.79 M 110,61 c -1.828,1.181 -0.249,1.181 2.5,0 1.319,-0.567 1.489,-0.878 0.5,-0.914 -0.825,-0.031 -2.175,0.381 -3,0.914 m 81.564,0.707 c -0.542,1.425 -0.428,1.54 0.56,0.56 0.684,-0.679 0.991,-1.486 0.683,-1.793 -0.308,-0.308 -0.867,0.247 -1.243,1.233 M 84.5,64.225 c -1.65,0.587 -3.888,1.676 -4.973,2.421 -1.084,0.745 -2.884,1.39 -4,1.433 -1.159,0.045 -1.469,0.302 -0.725,0.601 0.716,0.287 3.6,-0.467 6.408,-1.675 4.044,-1.74 6.267,-2.078 10.697,-1.627 5.408,0.55 5.494,0.521 2.593,-0.86 -3.53,-1.68 -5.904,-1.75 -10,-0.293 m 46,0.293 c -2.901,1.381 -2.815,1.41 2.593,0.86 4.43,-0.451 6.653,-0.113 10.697,1.627 2.808,1.208 5.692,1.962 6.408,1.675 0.881,-0.354 0.769,-0.548 -0.349,-0.601 -0.908,-0.043 -4.058,-1.2 -7,-2.569 -6.097,-2.839 -8.127,-3.002 -12.349,-0.992 m 32.313,-0.835 c 0.721,0.289 1.584,0.253 1.916,-0.079 0.332,-0.332 -0.258,-0.568 -1.312,-0.525 -1.165,0.048 -1.402,0.285 -0.604,0.604 M 30,64.445 c 0,1.686 3.384,8.555 4.215,8.555 0.548,0 2.645,1.305 4.659,2.9 2.014,1.595 5.729,3.905 8.254,5.132 3.964,1.925 5.502,2.134 11.232,1.52 C 63.035,82.051 65,81.428 65,80.445 65,79.36 64.429,79.267 62.435,80.025 59.042,81.315 52.698,81.297 53.5,80 53.84,79.45 55.554,78.954 57.309,78.897 59.064,78.841 57.012,78.208 52.748,77.491 44.028,76.025 37.862,72.884 33.137,67.503 31.412,65.538 30,64.162 30,64.445 M 105.5,65 c 0.34,0.55 0.816,1 1.059,1 0.243,0 0.441,-0.45 0.441,-1 0,-0.55 -0.477,-1 -1.059,-1 -0.582,0 -0.781,0.45 -0.441,1 m 2.898,1.393 c -1.068,2.305 -0.991,2.362 2.549,1.887 2.918,-0.391 4.278,0.038 6.777,2.141 2.36,1.986 3.321,2.318 3.923,1.355 1.559,-2.496 1.252,-3.879 -0.721,-3.252 -1.402,0.445 -2.22,-0.076 -3.078,-1.959 -0.94,-2.063 -1.872,-2.563 -4.759,-2.557053 C 110.29,64.014 109.258,64.539 108.398,66.393 M 119,65 c 0,0.55 0.477,1 1.059,1 0.582,0 0.781,-0.45 0.441,-1 -0.34,-0.55 -0.816,-1 -1.059,-1 -0.243,0 -0.441,0.45 -0.441,1 m 67.478,3.023 c -4.376,4.481 -12.517,8.953 -16.424,9.022 -2.546,0.045 -2.544,0.05 0.446,1.509 2.868,1.399 2.693,1.442 -4,0.986 l -7,-0.478 2.5,1.947 c 1.375,1.071 3.53,1.957 4.79,1.969165 C 169.604,83.005 176.266,79.704 181.144,75.867 183.148,74.29 185.234,73 185.78,73 c 0.546,0 1.778,-1.687 2.739,-3.75 0.96,-2.062 1.938,-4.088 2.173,-4.5 0.94,-1.654 -0.48,-0.551 -4.214,3.273 m -84.318,1.672 c -0.247,3.668 -0.234,3.682 1.804,1.838 1.922,-1.74 1.946,-1.974 0.389,-3.695 C 103.438,66.827 102.627,66 102.549,66 c -0.077,0 -0.252,1.663 -0.389,3.695 m 6.068,1.344 c -1.25,0.502 -2.536,1.599 -2.857,2.437 -0.322,0.838 -1.324,1.538 -2.228,1.555 -0.904,0.018 -2.452,1.143 -3.44,2.5 -1.959,2.692 -1.647,3.076 1.102,1.359 1.35,-0.843 2.952,-0.712 6.647,0.542 4.532,1.539 5.235,1.538 10.154,-0.009 l 5.284,-1.662 2.583,2.869 c 1.421,1.579 4.635,5.683 7.143,9.12 4.343,5.953 7.374,8.257 5.921,4.5 -0.372,-0.963 -0.927,-2.988 -1.232,-4.5 -0.543,-2.69 -0.452,-2.75 4.169,-2.75 5.421,0 11.111,-2.356 12.655,-5.24 1.352,-2.527 -1.558,-10.76 -3.803,-10.76 -0.829,0 -3.307,1.54 -5.505,3.422 -2.199,1.881 -5.645,3.86 -7.659,4.396 -3.315,0.883 -3.4,0.985 -0.897,1.079 1.521,0.056 5.254,-1.302 8.296,-3.018 3.041,-1.717 5.814,-2.837 6.162,-2.49 0.848,0.849 -4.553,6.44 -7.923,8.2 -5.51,2.879 -12.542,1.097 -16.741,-4.242 -1.466,-1.862 -1.768,-2.909 -0.982,-3.395 0.791,-0.488 0.812,-0.902 0.07,-1.361 -0.586,-0.362 -1.937,-0.114 -3.003,0.551 -1.641,1.025 -2.423,0.801 -5.117,-1.466 -3.345,-2.815 -5.068,-3.135 -8.799,-1.637 m -36.543,3.495 c -2.502,5.248 -2.121,7.098 2.047,9.93 2.852,1.938 5.001,2.536 9.111,2.536 h 5.38 l -0.657,3.5 c -0.816,4.348 -0.298,4.404 2.313,0.25 1.124,-1.787 3.185,-4.557 4.582,-6.156 3.244,-3.712 3.192,-3.983 -0.411,-2.12 -5.759,2.978 -10.867,1.825 -16.8,-3.79 -5.71,-5.405 -3.88,-6.308 3.411,-1.684 2.817,1.787 5.966,2.958 7.785,2.897 3.049,-0.104 3.048,-0.105 -0.608,-1.079 -2.014,-0.536 -5.46,-2.515 -7.659,-4.396 C 77.981,72.54 75.549,71 74.776,71 c -0.773,0 -2.164,1.59 -3.091,3.534 M 95,72.066 c -1.925,0.473 -5.75,0.654 -8.5,0.401 -4.422,-0.407 -4.653,-0.339 -2,0.583 3.335,1.16 11.558,0.598 14.256,-0.973 2.048,-1.193 1.059,-1.196 -3.756,-0.011 m 31.244,-0.067 c 2.51,1.574 10.747,2.251 14.256,1.171 2.442,-0.751 1.698,-0.908 -4,-0.839 -3.85,0.046 -8.125,-0.256 -9.5,-0.672 -2.047,-0.618 -2.184,-0.556 -0.756,0.34 M 99.24,84.786 c -1.186,2.11 -4.013,5.947 -6.283,8.526 C 90.687,95.89 89.249,98 89.761,98 91.445,98 97,94.874 97,93.927 97,93.417 97.45,93 98,93 c 0.55,0 1,0.73 1,1.622 0,1.284 0.295,1.378 1.411,0.452 1.023,-0.849 1.599,-0.866 2.096,-0.063 0.457,0.74 1.142,0.506 2.057,-0.701 0.857,-1.131 1.384,-1.329 1.404,-0.528 0.018,0.705 1.045,1.662 2.282,2.126 1.822,0.683 2.376,0.439 2.911,-1.282 0.654,-2.105 0.668,-2.103 1.386,0.198 0.592,1.897 1.194,2.207 3.277,1.684 1.404,-0.352 3.128,-1.398 3.832,-2.324 1.194,-1.571 1.283,-1.566 1.312,0.066 0.037,2.021 1.591,2.338 2.449,0.5 0.466,-1 0.7,-1 1.166,0 0.834,1.785 2.747,1.553 2.055,-0.25 -0.873,-2.275 0.734,-1.797 3.362,1 1.292,1.375 2.86,2.5 3.485,2.5 0.625,0 -1.029,-2.342 -3.675,-5.205 -2.645,-2.863 -4.81,-5.698 -4.81,-6.3 0,-0.602 -0.521,-1.616 -1.157,-2.252 -0.876,-0.876 -1.866,-0.56 -4.077,1.3 -1.606,1.352 -3.962,2.719 -5.235,3.039 -2.734,0.686 -7.524,-1.584 -10.8,-5.117 l -2.334,-2.516 -2.157,3.837 m 2.069,19.624 c 3.011,1.252 18.807,1.32 20.864,0.09 1.176,-0.703 -2,-1 -10.691,-1 -8.37,0 -11.656,0.294 -10.173,0.91 M 145,105.838 c 0,0.46 -2.546,2.084 -5.658,3.608 -3.112,1.524 -6.149,3.174 -6.75,3.667 -0.601,0.493 -3.792,2.902 -7.092,5.352 -3.3,2.451 -6.798,5.239 -7.774,6.196 -2.27,2.226 -8.144,2.25 -10.452,0.042 -2.811,-2.688 -10.825,-8.419 -14.248,-10.19 -1.721,-0.889 -3.378,-2.266 -3.682,-3.06 -0.305,-0.793 -0.985,-1.175 -1.512,-0.849 -0.527,0.325 -1.804,-0.173 -2.837,-1.109 -1.034,-0.935 -2.319,-1.542 -2.858,-1.348 -0.874,0.315 11.6,10.521 20.439,16.723 4.068,2.854 10.877,3.796 15.771,2.181 1.971,-0.651 5.737,-3.097 8.368,-5.435 2.632,-2.339 8.273,-6.812 12.535,-9.941 7.641,-5.609 8.719,-6.675 6.75,-6.675 -0.55,0 -1,0.377 -1,0.838"
         id="Shape"
         fill-opacity="0.11" />
      <path
         d="M 105.286,2.394 C 91.654,6.837 79.552,18.711 73.513,33.57 L 71.275,39.077 70,36 C 69.299,34.308 67.917,32.491 66.929,31.962 63.976,30.382 63.524,30.861 65.714,33.25 67.691,35.406 69.375,43 67.876,43 67.479,43 65.769,41.615 64.077,39.923 62.385,38.231 61,37.165 61,37.555 c 0,1.924 4.532,7.669 7.097,8.995 1.596,0.826 2.903,1.928 2.903,2.449 0,0.522 -3.617,-1.515 -8.039,-4.525 -8.316,-5.663 -13.25,-7.678 -6.361,-2.598 2.145,1.582 5.475,4.531 7.399,6.554 l 3.499,3.679 -5.999,-3.042 C 54.658,45.598 52.057,45.05 56.5,48.014 l 3,2.001 -3.5,-0.65 C 49.702,48.194 42.433,45.053 33.39,39.595 21.094,32.173 15.413,30.26 10.252,31.806 5.143,33.337 1,36.605 1,39.104 c 0,2.094 0.197,2.207 6.841,3.91 7.976,2.044 14.645,9.849 20.582,24.09 2.598,6.232 3.211,6.904 10.915,11.959 7.76,5.092 8.556,5.382 16.162,5.896 7.948,0.537 7.984,0.552 5.527,2.291 -3.473,2.459 -1.243,2.179 2.935,-0.368 2.372,-1.446 3.586,-1.738 3.856,-0.929 0.908,2.724 4.978,6.019 9.182,7.436 3.634,1.224 3.984,1.525 1.815,1.563 -1.477,0.027 -3.839,-0.391 -5.25,-0.927 C 71.043,93.066 71,93.127 71,97.624 c 0,5.901 2.168,10.323 6.406,13.066 1.861,1.205 7.368,5.527 12.239,9.606 11.749,9.839 13.596,10.704 22.855,10.704 9.223,0 10.885,-0.779 22.779,-10.678 4.936,-4.108 10.487,-8.449 12.337,-9.646 4.12,-2.667 6.384,-7.138 6.384,-12.612 v -4.133 l -5.25,0.575 -5.25,0.574 4.993,-1.79 c 3.448,-1.236 5.615,-2.784 7,-5.001 2.207,-3.532 4.002,-3.986 6.948,-1.757 1.068,0.807 2.418,1.454 3,1.436 0.583,-0.017 0.185,-0.692 -0.882,-1.5 -1.819,-1.375 -1.706,-1.468 1.79,-1.468 4.052,0 10.127,-2.705 15.651,-6.967 1.925,-1.485 4.182,-2.946 5.016,-3.246 0.834,-0.3 2.167,-1.837 2.962,-3.416 9.943,-19.749 19.28,-29.319 28.65,-29.365 0.62,-0.003 1.694,-0.689 2.388,-1.525 1.033,-1.245 0.92,-1.901 -0.628,-3.641 -2.279,-2.562 -9.023,-5.788 -12.163,-5.818 -4.074,-0.039 -13.312,3.809 -22.614,9.421 -9.889,5.965 -18.872,9.781 -16.61,7.055 1.744,-2.101 0.688,-1.881 -5.134,1.069 -2.786,1.412 -5.267,2.367 -5.512,2.121 -0.246,-0.245 2.612,-3.273 6.349,-6.729 6.682,-6.176 5.43,-5.962 -3.956,0.679 -2.614,1.849 -5.314,3.36 -6,3.358 -0.687,-0.002 0.152,-0.857 1.863,-1.901 2.877,-1.754 7.389,-6.998 7.389,-8.588 0,-0.377 -1.385,0.48 -3.077,1.904 -1.692,1.424 -3.432,2.589 -3.865,2.589 -1.362,0 0.598,-7.962 2.468,-10.029 0.981,-1.084 1.282,-1.971 0.668,-1.971 -1.468,0 -5.009,3.842 -5.78,6.27 -0.461,1.454 -1.589,-0.1 -4.664,-6.426 C 140.253,10.308 119.783,-2.33 105.286,2.394 m 1,3.025 C 91.772,10.064 76.559,28.082 74.553,43 l -0.605,4.5 1.864,-3 c 2.912,-4.687 4.586,-5.599 12.396,-6.752 4.011,-0.592 8.111,-1.775 9.111,-2.63 2.73,-2.331 27.155,-2.607 30.681,-0.346 1.375,0.881 5.84,2.184 9.923,2.894 5.533,0.962 8.121,1.96 10.168,3.921 l 2.745,2.63 -0.969,-4.315 C 147.2,28.033 135.543,13.806 123.861,8.161 115.977,4.352 111.704,3.685 106.286,5.419 M 8.5,35.432 l -3,1.342 4.133,-0.003 c 9.102,-0.007 17.421,4.513 27.106,14.728 8.062,8.502 14.722,12.231 23.434,13.121 3.928,0.401 4.933,0.264 3.827,-0.523 -0.825,-0.586 -2.85,-1.127 -4.5,-1.2 l -3,-0.134 2.97,-0.636 c 2.813,-0.603 2.695,-0.707 -2.248,-1.973 -2.87,-0.736 -5.5,-1.795 -5.845,-2.353 -0.377,-0.61 0.12,-0.794 1.248,-0.461 1.031,0.304 3.675,0.811 5.875,1.125 3.162,0.452 3.529,0.365 1.75,-0.415 -3.485,-1.527 -2.668,-2.14 1.883,-1.413 3.28,0.525 4.038,0.375 3.67,-0.727 C 65.532,55.097 60.883,53.393 54.581,51.797 43.934,49.1 41.656,48.078 29,40.316 18.62,33.951 14.178,32.893 8.5,35.432 m 192.863,-0.004 c -2.276,0.712 -8.477,3.884 -13.781,7.049 -5.304,3.165 -13.49,6.991 -18.192,8.503 -4.701,1.512 -9.284,3.485 -10.183,4.385 -2.14,2.14 -0.144,2.171 3.936,0.061 4.241,-2.193 4.816,-0.981 0.72,1.516 -3.993,2.435 -2.947,2.594 3.728,0.569 6.939,-2.105 7.712,-1.738 2.052,0.974 -3.647,1.747 -4.395,2.446 -3,2.805 1.409,0.363 1.254,0.515 -0.643,0.629 -2.492,0.151 -8.462,2.978 -6.432,3.046 2.576,0.085 12.041,-3.34 15.432,-5.584 2.041,-1.35 6.263,-5.345 9.384,-8.878 6.94,-7.855 17.261,-13.509 24.944,-13.663 2.649,-0.053 5.308,0.396 5.911,0.999 1.182,1.182 1.349,1.094 -5.739,3.019 -5.941,1.612 -10.971,6.329 -14.329,13.436 -4.637,9.815 -10.1,16.015 -17.267,19.596 -3.723,1.86 -7.867,3.141 -10.314,3.187 l -4.09,0.077 4,1.402 4,1.402 -4,-0.38 c -2.2,-0.21 -4.787,-0.698 -5.75,-1.086 -1.108,-0.447 -1.75,-0.249 -1.75,0.541 0,3.816 8.27,5.147 13.513,2.175 11.176,-6.335 13.485,-8.559 18.131,-17.468 7.167,-13.743 15.186,-21.289 24.694,-23.24 2.48,-0.509 2.669,-0.786 1.5,-2.196 -1.703,-2.054 -7.091,-4.324 -10.056,-4.237 -1.255,0.037 -4.144,0.649 -6.419,1.361 M 98.656,37.066 c -1.564,0.946 -5.995,2.188 -9.847,2.76 -7.48,1.11 -10.106,2.72 -11.646,7.138 l -0.966,2.769 4.912,-1.867 c 7.572,-2.876 13.706,-2.18 18.391,2.09 1.5,1.367 4.413,1.997 11.655,2.519 10.313,0.745 11.741,0.395 17.313,-4.243 2.623,-2.182 3.643,-2.409 8.758,-1.945 3.184,0.289 7.361,1.452 9.282,2.585 4.044,2.386 4.494,1.284 1.488,-3.647 -2.273,-3.728 -4.239,-4.653 -11.996,-5.643 -3.025,-0.386 -6.625,-1.444 -8,-2.352 -3.736,-2.467 -25.339,-2.588 -29.344,-0.164 M 4,39.954 c 0.825,0.559 2.305,1.022 3.29,1.031 C 11.889,41.024 24,50.58 24,54.17 c 0,0.64 0.258,0.905 0.574,0.59 0.999,-1 -2.341,-6.349 -5.937,-9.506 C 15.316,42.339 12.009,40.905 5.5,39.559 3.292,39.103 2.896,39.207 4,39.954 m 81.358,17 C 81.687,57.829 75,61.765 75,63.049 c 0,1.014 1.673,0.398 7.926,-2.921 3.437,-1.823 5.442,-2.234 8.968,-1.836 4.261,0.48 4.389,0.427 2.074,-0.855 -2.733,-1.513 -3.994,-1.584 -8.61,-0.483 m 45.674,0.458 c -2.33,1.314 -2.215,1.363 2.063,0.881 3.726,-0.42 5.647,0.053 10.824,2.666 6.829,3.448 8.157,2.031 1.508,-1.608 -5.288,-2.895 -11.27,-3.7 -14.395,-1.939 m -21.956,0.52 c -0.955,0.604 0.199,0.891 3.5,0.87 3.529,-0.022 4.358,-0.262 2.924,-0.846 -2.696,-1.099 -4.714,-1.107 -6.424,-0.024 m -18.424,2.919 c 5.545,1.011 11.472,5.058 11.119,7.59 -0.375,2.683 -5.613,3.872 -14.574,3.311 -5.324,-0.334 -7.005,-0.159 -6.202,0.645 0.625,0.625 4.22,1.051 8.303,0.982 10.708,-0.18 14.216,-0.751 16.083,-2.617 0.926,-0.926 3.247,-1.977 5.159,-2.335 2.847,-0.535 4.126,-0.156 7.076,2.094 2.748,2.096 3.79,2.44 4.399,1.454 0.637,-1.03 1.551,-0.934 4.521,0.475 4.079,1.936 15.544,1.87 17.514,-0.1 0.742,-0.742 -1.153,-0.915 -6.36,-0.581 C 130.353,72.24 123,70.815 123,68.922 123,68.415 123.45,68 124,68 c 0.55,0 0.887,-0.518 0.75,-1.152 -0.444,-2.047 6.305,-5.84 10.648,-5.984 2.564,-0.085 3.209,-0.305 1.721,-0.587 -4.429,-0.838 -8.806,0.742 -13.138,4.741 -2.373,2.19 -4.452,3.982 -4.622,3.982 -0.169,0 -1.006,-1.35 -1.859,-3 -2.047,-3.958 -6.963,-4.273 -8.657,-0.555 -1.632,3.583 -3.574,3.871 -5.126,0.761 -0.743,-1.488 -1.939,-2.575 -2.659,-2.414 -0.72,0.16 -2.134,-0.456 -3.143,-1.369 -1.009,-0.913 -3.989,-1.81 -6.624,-1.995 L 86.5,60.093 90.652,60.851 M 109,61 c 0,0.55 1.827,1 4.059,1 2.451,0 3.814,-0.396 3.441,-1 -0.34,-0.55 -2.166,-1 -4.059,-1 -1.893,0 -3.441,0.45 -3.441,1 m -41,2 c 1.939,1.253 3,1.253 3,0 0,-0.55 -1.013,-0.993 -2.25,-0.985 C 66.931,62.028 66.787,62.216 68,63 m -37.315,4.195 c 1.323,3.364 3.17,5.585 6.815,8.198 9.266,6.64 11.787,7.607 19.844,7.607 6.698,0 7.476,-0.205 7.972,-2.099 0.464,-1.778 0.214,-1.999 -1.634,-1.448 -1.2,0.358 -3.982,0.856 -6.182,1.107 l -4,0.456 5,-1.858 5,-1.857 L 55,76.823 C 44.808,76.25 39.527,73.914 33.185,67.17 l -4.316,-4.588 1.816,4.613 M 80.5,65.711 c -6.807,3.032 -6.987,3.136 -6.417,3.704 0.23,0.228 3.305,-0.587 6.834,-1.81 5.212,-1.807 7.46,-2.083 11.973,-1.471 6.735,0.914 7.626,0.397 2.796,-1.621 C 90.599,62.388 87.392,62.641 80.5,65.711 M 105,64.5 c 0,0.825 0.45,1.5 1,1.5 0.55,0 1,-0.675 1,-1.5 0,-0.825 -0.45,-1.5 -1,-1.5 -0.55,0 -1,0.675 -1,1.5 m 24.099,0.054 c -4.563,1.981 -3.706,2.437 2.905,1.548 4.511,-0.607 6.644,-0.321 11.9,1.592 3.522,1.283 6.634,2.101 6.916,1.819 0.686,-0.685 0.6,-0.736 -6.445,-3.826 -6.891,-3.023 -10.333,-3.278 -15.276,-1.133 M 76.25,65.031 C 75.013,65.529 74,66.175 74,66.468 c 0,0.97 1.592,0.552 3.559,-0.936 2.212,-1.674 1.903,-1.792 -1.309,-0.501 M 119,65 c 0,0.55 0.45,1 1,1 0.55,0 1,-0.45 1,-1 0,-0.55 -0.45,-1 -1,-1 -0.55,0 -1,0.45 -1,1 m 28.441,0.55 c 2.15,1.606 3.979,1.939 3.134,0.571 -0.299,-0.484 -1.563,-1.137 -2.809,-1.451 -2.186,-0.55 -2.198,-0.519 -0.325,0.88 M 157,66.877 c 0,0.491 1.111,1.621 2.47,2.511 1.669,1.094 2.311,1.206 1.981,0.344 C 160.836,68.13 157,65.669 157,66.877 m -90,2.182 c 0,0.582 0.45,0.781 1,0.441 0.55,-0.34 1,-0.816 1,-1.059 C 69,68.198 68.55,68 68,68 c -0.55,0 -1,0.477 -1,1.059 m 41,1.678 c -0.825,0.318 -2.113,1.444 -2.863,2.501 -0.908,1.281 -2.085,1.741 -3.53,1.378 -1.275,-0.32 -3.392,0.263 -5.138,1.413 C 92.248,78.812 86.325,78.585 81.732,75.464 79.679,74.069 78,72.494 78,71.964 78,71.434 76.887,71 75.526,71 72.775,71 70,75.157 70,79.276 c 0,4.425 7.448,8.702 15.18,8.718 2.547,0.006 2.634,0.168 1.75,3.249 -1.562,5.446 -1.111,5.293 3.953,-1.344 2.686,-3.519 6.187,-7.627 7.782,-9.127 l 2.898,-2.728 5.245,1.678 c 5.306,1.696 6.318,1.606 15.442,-1.382 1.118,-0.366 1.75,-0.057 1.75,0.856 0,0.787 1.292,2.668 2.872,4.181 1.579,1.513 4.616,5.188 6.75,8.165 2.133,2.978 4.272,5.425 4.753,5.436092 C 139.246,97 138.752,93.082 137.463,89.75 c -0.548,-1.416 -0.131,-1.751 2.18,-1.756 7.472,-0.014 15.357,-4.225 15.357,-8.2 0,-1.022 -0.652,-3.419 -1.449,-5.326 -1.117,-2.672 -2.034,-3.468 -4,-3.468 -1.403,0 -2.551,0.434 -2.551,0.964 0,0.53 -1.679,2.105 -3.732,3.5 -5.002,3.399 -10.554,3.385 -15.593,-0.039 -3.002,-2.04 -4.085,-2.329 -5.212,-1.394 -1.131,0.939 -2.057,0.647 -4.52,-1.425 C 114.992,70.122 111.36,69.44 108,70.737 m -30.008,7.755 c 5.383,5.485 9.404,6.535 15.131,3.953 2.197,-0.991 4.899,-3.072 6.004,-4.623 2.455,-3.448 2.214,-3.472 -3.275,-0.334 C 89.989,80.84 85.572,80.704 80,77 73.606,72.749 72.883,73.286 77.992,78.492 M 145,77 c -5.572,3.704 -9.989,3.84 -15.852,0.488 -5.531,-3.162 -5.739,-3.126 -3.133,0.533 2.705,3.799 8.416,6.293 12.823,5.601 4.181,-0.657 14.837,-9.637 11.412,-9.61803 C 149.838,74.007 147.475,75.355 145,77 m -46.414,7.948 c -1.603,2.701 -4.704,6.754 -6.891,9.008 -2.187,2.253 -3.69,4.382 -3.341,4.731 0.776,0.776 7.642,-2.619 9.478,-4.687 1.173,-1.322 1.27,-1.304 0.819,0.15 -0.407,1.312 0.191,1.65 2.919,1.65 1.909,0 3.437,-0.51 3.445,-1.15 0.011,-0.835 0.217,-0.845 0.75,-0.035 0.404,0.614 1.748,1.431 2.985,1.818 1.761,0.549 2.257,0.307 2.28,-1.116 0.028,-1.652 0.132,-1.636 1.148,0.183 0.614,1.1 1.223,2.135 1.352,2.299 0.129,0.164 1.863,-0.615 3.852,-1.733 1.99,-1.117 3.618,-1.62 3.618,-1.116 0,0.504 1.35,0.878 3,0.831 2.044,-0.058 3.002,-0.595 3.005,-1.683 0.004,-1.15 0.635,-0.85 2.25,1.066 1.235,1.465 3.37,2.988 4.745,3.384 2.098,0.605 1.676,-0.154 -2.625,-4.722 -2.819,-2.993 -5.893,-6.927 -6.831,-8.741 l -1.706,-3.299 -3.038,3.107 c -4.7,4.808 -10.547,4.077 -15.8,-1.975 l -2.5,-2.88 -2.914,4.91 M 76.007,100.5 c 0,2.48 4.455,7.858 10.132,12.23 3.406,2.624 8.476,6.701 11.266,9.062 2.987,2.527 7.148,4.894 10.121,5.759 4.453,1.294 5.643,1.291 10.08,-0.027 2.886,-0.857 6.493,-2.916 8.462,-4.833 1.888,-1.836 8.045,-6.841 13.682,-11.122 5.637,-4.281 10.25,-8.05 10.25,-8.376 0,-0.326 -0.54,-0.053 -1.2,0.607 -1.838,1.838 -2.661,1.436 -2.152,-1.05 0.268,-1.303 -0.192,-0.836 -1.09,1.108 -1.053,2.279 -2.036,3.173 -3.055,2.781 -0.917,-0.351 -1.503,-0.003 -1.503,0.892 0,0.808 -0.45,1.525 -1,1.594 -2.026,0.253 -2.592,0.529 -7.15,3.485 -5.506,3.57 -11.228,8.015 -14.339,11.14 -2.661,2.673 -9.225,3.158 -10.149,0.75 -0.317,-0.825 -1.118,-1.5 -1.78,-1.5 -0.663,0 -2.077,-0.787 -3.143,-1.75 -2.486,-2.244 -10.414,-7.535 -12.689,-8.468 -0.963,-0.395 -1.75,-1.182 -1.75,-1.75 0,-0.567 -0.338,-0.979 -0.75,-0.914 -2.404,0.38 -3.557,-0.558 -5.367,-4.368 -1.479,-3.113 -1.857,-3.492 -1.411,-1.416 0.756,3.523 -0.83,2.766 -3.549,-1.693 -1.054,-1.728 -1.916,-2.691 -1.916,-2.141 M 99,103.7 c 2.04,0.942 7.047,1.773 12,1.992 7.009,0.31 9.202,0.024 12.5,-1.625 l 4,-2.001 -4,0.714 c -4.341,0.774 -21.335,0.653 -25.454,-0.181 -1.886,-0.382 -1.638,-0.097 0.954,1.101"
         id="path7"
         fill-opacity="0.317" />
      <path
         d="M 108.232,2.06 C 94.246,4.818 78.047,20.208 72.984,35.55 71.836,39.026 71.571,39.255 70.596,37.612 69.993,36.595 68.687,34.804 67.694,33.631 66.028,31.666 65.959,31.656 66.812,33.5 68.273,36.659 69.186,43 68.18,43 67.679,43 66.084,42.067 64.635,40.927 63.186,39.788 62,39.249 62,39.731 62,41.031 68.403,47 69.798,47 70.459,47 71,47.675 71,48.5 c 0,0.825 -0.215,1.5 -0.479,1.5 -0.263,0 -3.562,-2.25 -7.331,-5 -3.769,-2.75 -7.18,-5 -7.579,-5 -0.399,0 2.014,2.536 5.363,5.636 3.348,3.1 5.913,5.81 5.7,6.023 -0.213,0.213 -2.364,-0.742 -4.781,-2.124 -4.885,-2.792 -7.332,-3.364 -4.334,-1.012 1.802,1.413 1.655,1.476 -2.059,0.869 C 49.201,48.365 42.943,45.704 33.716,40.13 22.817,33.547 19.049,32 13.918,32 9.145,32 2.321,35.414 1.42,38.253 c -0.778,2.449 -0.428,2.736 4.752,3.885 9.206,2.043 14.772,7.968 21.825,23.234 3.551,7.686 4.258,8.533 10.769,12.901 9.405,6.31 11.57,7.028 18.984,6.292 5.898,-0.586 8.37,0.408 4.607,1.852 -0.904,0.346 -1.352,0.921 -0.996,1.277 0.356,0.356 1.754,-0.393 3.108,-1.665 l 2.461,-2.312 1.785,3.116 c 1.64,2.863 3.185,3.93 10.285,7.098 2.123,0.947 1.708,1.044 -2.75,0.639 -5.157,-0.467 -5.25,-0.428 -5.244,2.227 0.011,5.613 2.031,10.13 5.782,12.934 2.038,1.523 7.905,6.222 13.039,10.443 11.695,9.616 14.229,10.826 22.673,10.826 8.427,0 10.78,-1.127 22.556,-10.805 5.194,-4.268 10.957,-8.825 12.807,-10.126 3.826,-2.692 6.137,-7.395 6.137,-12.49 v -3.485 l -5,0.592 c -5.973,0.708 -6.552,-0.191 -1.073,-1.666 3.599,-0.969 8.209,-5.035 9.335,-8.233 0.349,-0.991 1.174,-0.873 3.583,0.512 2.113,1.215 2.969,1.377 2.635,0.5 -0.359,-0.941 0.715,-1.305 3.9,-1.322 3.615,-0.019 5.759,-0.94 12.074,-5.189 4.224,-2.841 8.014,-5.306 8.422,-5.477 0.409,-0.171 2.849,-4.29 5.423,-9.153 2.573,-4.863 6.09,-10.624 7.814,-12.801 3.588,-4.53 12.172,-9.834 15.937,-9.848 3.406,-0.012 5.13,-1.805 3.916,-4.073 -1.825,-3.409 -7.405,-5.937 -13.084,-5.926 -5.98,0.011 -11.276,2.132 -23.107,9.255 -9.964,5.998 -18.974,9.484 -17.233,6.667 0.363,-0.588 -1.635,0.095 -4.441,1.517 -2.806,1.421 -5.101,2.165 -5.101,1.652 0,-0.513 2.813,-3.515 6.25,-6.67 6.667,-6.119 6.395,-6.171 -2.25,-0.431 -7.568,5.025 -8,5.249 -8,4.158 0,-0.528 1.463,-1.838 3.25,-2.91 1.787,-1.072 4.123,-3.479 5.19,-5.349 l 1.941,-3.399 -3.725,3.25 c -2.049,1.788 -3.94,3.25 -4.203,3.25 -0.727,0 0.691,-8.248 1.784,-10.371 0.679,-1.32 0.636,-1.669 -0.147,-1.185 -0.61,0.377 -1.943,2.312 -2.963,4.3 l -1.854,3.614 -1.249,-3.929 C 150.323,30.075 142.881,18.195 138.823,14.355 133.774,9.576 125.025,4.382 119.021,2.599 116.06,1.72 113.381,1.049 113.068,1.11 c -0.312,0.06 -2.489,0.488 -4.836,0.95 m -4.545,3.856 C 89.779,11.517 76.415,28.261 74.489,42.5 l -0.677,5 2.554,-3.638 C 79.149,39.897 83.238,38 89,38 c 2.036,0 5.682,-1.031 8.101,-2.291 3.919,-2.042 5.708,-2.28 16.399,-2.18 10.311,0.097 12.561,0.419 15.985,2.292 2.192,1.198 5.65,2.179 7.685,2.179 5.085,0 8.899,1.563 11.672,4.782 l 2.342,2.718 -0.661,-4 C 148.959,32.025 140.889,19.608 131.846,12.761 121.188,4.692 112.171,2.5 103.687,5.916 M 8.352,34.993 c -4.036,1.629 -3.163,2.507 2.493,2.508 8.803,0.001 15.409,3.643 25.881,14.27 7.094,7.199 9.882,9.318 14.562,11.066 C 57.135,65.022 68.008,65.944 65,64 64.175,63.467 62.375,62.962 61,62.879 L 58.5,62.728 61,62.212 c 2.118,-0.437 1.659,-0.784 -3,-2.272 l -5.5,-1.758 5,0.492 c 3.917,0.385 4.675,0.24 3.5,-0.666 -1.183,-0.913 -0.706,-1.026 2.25,-0.538 2.072,0.343 3.75,0.208 3.75,-0.302 0,-1.926 -3.176,-3.384 -12.282,-5.639 -9.8,-2.427 -15.3,-4.804 -22.459,-9.708 -9.81,-6.72 -18.221,-9.122 -23.907,-6.828 M 197.5,36.839 c -3.3,1.623 -9.473,4.957 -13.718,7.409 -4.245,2.452 -10.32,5.226 -13.5,6.164 -7.77,2.293 -12.282,4.34 -12.282,5.572 0,1.322 2.556,1.297 5.316,-0.051 1.907,-0.932 1.867,-0.795 -0.316,1.081 l -2.5,2.148 3.5,-0.496 c 1.925,-0.273 4.361,-0.836 5.414,-1.251 1.281,-0.505 1.69,-0.393 1.239,0.338 -0.372,0.601 -2.133,1.429 -3.914,1.84 -3.188,0.734 -3.2,0.757 -0.739,1.477 2.434,0.711 2.42,0.734 -0.5,0.866 -1.65,0.074 -4.125,0.821 -5.5,1.659 -2.418,1.473 -2.344,1.506 2.253,0.983 7.229,-0.822 12.469,-4.032 21.247,-13.015 9.105,-9.318 16.673,-13.664 24.995,-14.354 5.766,-0.478 8.522,1.267 3.796,2.404 -8.238,1.981 -13.443,6.609 -18.242,16.221 -3.483,6.977 -9.478,14.032 -14.625,17.213 -1.833,1.133 -6.166,2.653 -9.629,3.378 l -6.295,1.318 3.5,1.125 c 3.422,1.1 3.43,1.115 0.367,0.677 -1.724,-0.247 -4.36,-0.756 -5.858,-1.132 -2.5,-0.628 -2.635,-0.517 -1.638,1.346 0.598,1.117 2.451,2.506 4.119,3.088 4.051,1.412 8.647,-0.262 17.274,-6.293 6.061,-4.237 7.17,-5.578 11.411,-13.788 5.754,-11.141 13.252,-19.126 19.549,-20.821 8.491,-2.284 8.5,-2.293 4.784,-4.94 C 211.76,33.268 204.88,33.21 197.5,36.839 M 98.792,36.637 c -0.777,0.777 -4.311,1.863 -7.853,2.413 -8.946,1.389 -11.422,2.576 -13.527,6.483 -2.215,4.114 -1.532,5.084 2.245,3.184 6.663,-3.354 14.365,-2.847 19.626,1.291 2.014,1.584 4.705,2.133 12.936,2.636 l 10.392,0.636 3.445,-2.989 c 1.894,-1.645 4.674,-3.289 6.176,-3.655 4.063,-0.989 10.445,0.334 14.332,2.972 3.248,2.204 3.436,2.227 3.436,0.409 0,-6.021 -4.638,-9.748 -13.304,-10.688 -2.858,-0.31 -6.578,-1.348 -8.267,-2.307 -4.092,-2.323 -27.397,-2.626 -29.637,-0.385 M 3.5,40 c 0.34,0.55 1.574,1 2.743,1 3.458,0 10.442,3.877 13.73,7.622 1.683,1.917 5.283,8.094 8,13.725 4.724,9.795 5.233,10.438 11.733,14.813 8.413,5.665 11.091,6.475 19.294,5.842 5.898,-0.456 6.531,-0.721 6.834,-2.863 C 66.066,78.502 65.8,78.006 64.966,78.521 63.518,79.416 57,80.951 57,80.398 c 0,-0.216 1.463,-1.032 3.25,-1.814 L 63.5,77.163 57.365,77.082 C 43.094,76.892 33.928,70.574 25.65,55.223 22.983,50.276 19.573,45.321 18.074,44.213 13.492,40.825 1.948,37.488 3.5,40 m 78,18.351 C 76.195,60.824 72.547,64.035 75.128,63.96 75.882,63.938 78.975,62.589 82,60.961 85.025,59.332 88.527,58 89.782,58 c 2.641,0 9.767,2.784 9.025,3.526 -0.275,0.275 -2.183,-0.203 -4.239,-1.062 -3.062,-1.279 -4.404,-1.35 -7.404,-0.392 -2.015,0.643 -4.114,1.631 -4.664,2.196 -0.681,0.699 -0.361,0.771 1,0.227 4.428,-1.771 8.284,-1.646 12.29,0.398 2.241,1.143 4.37,2.557 4.732,3.143 0.362,0.585 -1.063,0.142 -3.167,-0.986 C 92.51,62.453 86.526,62.434 81.739,65 76.952,67.565 75.821,67.518 79,64.885 c 2.025,-1.678 2.12,-1.937 0.5,-1.365 -1.1,0.389 -2.676,0.904 -3.501,1.145 -2.208,0.644 -6.894,14.388 -5.859,17.184 1.038,2.806 8.132,6.1 13.198,6.129 l 3.838,0.022 -0.634,4.25 -0.633,4.25 2.295,-2.989 c 1.263,-1.645 4.486,-5.625 7.162,-8.846 4.662,-5.61 5.019,-5.83 8.5,-5.222 9.168,1.6 11.239,1.677 14.654,0.55 3.427,-1.131 3.835,-1.03 6.667,1.651 4.09,3.872 12.206,15.296 11.423,16.079 -0.916,0.916 -6.088,-4.318 -10.279,-10.404 l -3.627,-5.266 -3.507,3.079 c -4.586,4.027 -8.938,3.503 -14.286,-1.719 l -3.746,-3.657 -2.035,3.99 C 98.01,85.94 94.778,90.27 91.947,93.368 87.638,98.083 87.137,99 88.875,99 c 1.142,0 3.424,-0.819 5.071,-1.821 1.939,-1.179 4.413,-1.708 7.024,-1.502 2.626,0.208 4.03,-0.095 4.03,-0.87 0,-0.659 0.557,-0.442 1.25,0.488 2.466,3.307 11.341,2.803 13.985,-0.795 0.463,-0.63 0.74,-0.562 0.75,0.183 0.008,0.664 1.332,1.146 3.015,1.098 1.65,-0.047 3,-0.507 3,-1.022 0,-0.515 1.385,0.228 3.077,1.652 6.348,5.342 10.922,1.978 7.948,-5.846 -0.951,-2.501 -0.87,-2.566 3.25,-2.587 5.458,-0.028 12.515,-3.236 13.606,-6.185 0.601,-1.624 0.105,-4.352 -1.709,-9.394 -2.129,-5.921 -3.054,-7.293 -5.548,-8.235 -4.063,-1.533 -4.535,-0.686 -0.717,1.288 3.182,1.645 4.258,2.932 1.599,1.912 -0.821,-0.315 -3.166,-1.426 -5.211,-2.469 -4.839,-2.466 -10.87,-2.407 -15.65,0.155 -2.104,1.128 -3.529,1.571 -3.167,0.986 0.362,-0.586 2.491,-2 4.732,-3.143 4.017,-2.05 8.021,-2.173 12.204,-0.375 1.338,0.574 1.702,0.478 1.208,-0.321 -0.389,-0.628 -2.471,-1.618 -4.628,-2.199 -3.099,-0.834 -4.694,-0.732 -7.611,0.486 -2.03,0.848 -3.915,1.317 -4.19,1.042 -0.758,-0.758 6.411,-3.526 9.134,-3.526 1.315,0 4.921,1.35 8.013,3 6.647,3.547 8.717,3.84 6.065,0.859 C 146.759,58.884 140.196,56.048 135.9,56.021888 131.563,55.996 124.826,60.503 122.51,64.98 c -1.9,3.675 -3.189,3.818 -4.692,0.52 -0.929,-2.039 -1.852,-2.5 -5.003,-2.5 -3.202,0 -4.027,0.429 -4.815,2.5 -1.215,3.195 -2.733,3.181 -4.2,-0.039 -0.642,-1.409 -1.73,-2.318 -2.446,-2.043 -0.71,0.272 -1.599,-0.005 -1.976,-0.616 -0.416,-0.673 -0.232,-0.83 0.467,-0.397 0.635,0.392 1.155,0.464 1.155,0.16 0,-0.304 -1.868,-1.905 -4.15,-3.559 C 91.816,55.36 88.242,55.207 81.5,58.351 M 108.5,58 c -0.371,0.6 1.107,1.064 3.691,1.16 4.045,0.15 4.095,0.185 0.809,0.571 -5.798,0.682 -5.96,2.269 -0.231,2.269 4.501,0 5.085,-0.226 4.523,-1.75 -0.356,-0.963 -1.129,-2.081 -1.719,-2.485 -1.579,-1.081 -6.358,-0.922 -7.073,0.235 m -42.417,4.365 c 0.23,0.2 1.43,0.891 2.667,1.535 C 70.615,64.87 71,64.807 71,63.535 71,62.539 70.064,62 68.333,62 c -1.466,0 -2.479,0.164 -2.25,0.365 m 38.653,1.233 c -0.802,0.801 0.247,3.402 1.371,3.402 0.491,0 0.893,-0.9 0.893,-2 0,-1.949 -1.061,-2.606 -2.264,-1.402 M 119,64.941 c 0,1.132 0.45,2.059 1,2.059 0.55,0 1,-0.648 1,-1.441 0,-0.793 -0.45,-1.719 -1,-2.059 -0.55,-0.34 -1,0.309 -1,1.441 m -35.5,1.961 c -1.1,0.496 -3.257,1.393 -4.794,1.992 l -2.794,1.09 3.294,2.861 c 6.632,5.761 10.975,6.561 16.695,3.074 1.871,-1.14 4.217,-1.86 5.213,-1.599 0.997,0.26 2.392,-0.225 3.099,-1.078 1.269,-1.53 6.817,-4.242 8.678,-4.242 0.526,0 2.311,1.141 3.968,2.535 2.158,1.816 3.698,2.363 5.428,1.929 1.674,-0.42 3.578,0.183 6.204,1.965 5.593,3.796 12.436,2.979 16.547,-1.975 0.766,-0.923 2.26,-1.999 3.32,-2.391 1.514,-0.56 0.605,-1.207 -4.248,-3.022 -4.971,-1.859 -7.26,-2.181 -11.747,-1.654 -3.065,0.36 -6.538,1.181 -7.718,1.823 -2.006,1.093 -1.854,1.257 2.355,2.546 2.971,0.909 6.816,1.18 11.317,0.797 7.537,-0.641 8.333,0.656 1.528,2.489 -4.431,1.193 -9.944,0.596 -13.788,-1.492 -1.779,-0.966 -2.905,-1.038 -4.146,-0.262 -1.343,0.838 -2.378,0.497 -4.884,-1.612 -1.749,-1.472 -3.61,-2.676 -4.136,-2.676 -1.921,0 -7.428,2.735 -8.774,4.357 -0.929,1.121 -1.764,1.351 -2.546,0.702 -0.763,-0.633 -2.693,-0.438 -5.607,0.565 -4.951,1.706 -11.509,1.194 -14.579,-1.138 -1.672,-1.27 -1.037,-1.369 5.615,-0.877 5.214,0.386 8.713,0.121 11.478,-0.87 3.845,-1.377 3.903,-1.465 1.744,-2.62 C 97.311,66.561 86.067,65.743 83.5,66.902 M 156,66.709 c 0,1.474 7.852,5.478 9.762,4.978 1.453,-0.38 1.41,-0.477 -0.262,-0.586 -1.1,-0.073 -2.646,-0.54 -3.435,-1.04 -1.092,-0.691 -0.614,-1.144 2,-1.894 l 3.435,-0.987 -4.168,-0.09 c -2.293,-0.049 -4.88,-0.363 -5.75,-0.697 C 156.712,66.059 156,66.201 156,66.709 m -93,1.514 3.5,1.043 -3,1.322 c -1.958,0.863 -2.375,1.337 -1.2,1.367 2.602,0.065 7.87,-2.871 7.174,-3.998 -0.326,-0.526 -2.703,-0.916 -5.283,-0.867 L 59.5,67.18 63,68.223 m 14.928,10.13 c 6.281,6.613 13.025,6.94 19.294,0.935 3.518,-3.371 3.637,-5.109 0.162,-2.376 -1.438,1.132 -4.251,2.511 -6.25,3.064 -3.147,0.872 -4.369,0.64 -9.122,-1.735 -7.792,-3.892 -7.886,-3.89 -4.084,0.112 M 125,75.783 c 0,1.558 5.527,6.156 8.749,7.279 4.302,1.5 8.921,-0.094 13.269,-4.581 1.856,-1.914 3.107,-3.481 2.78,-3.481 -0.327,0 -3.085,1.31 -6.127,2.91 -4.682,2.463 -6.106,2.781 -9.263,2.069 -2.052,-0.462 -5.008,-1.786 -6.569,-2.94 C 126.278,75.885 125,75.319 125,75.783 M 75.438,98.332 c 0.309,1.007 0.562,2.454 0.562,3.215 0,2.992 6.103,8.62 25.65,23.654 7.467,5.743 16.908,4.468 25.945,-3.502 2.619,-2.31 8.358,-6.899 12.754,-10.199 9.697,-7.278 12.334,-10.488 10.793,-13.139 -0.975,-1.677 -1.084,-1.602 -1.112,0.767 -0.016,1.445 -0.705,3.187 -1.53,3.872 -1.272,1.056 -1.512,0.809 -1.577,-1.628 -0.07,-2.635 -0.174,-2.549 -1.259,1.048 -1.257,4.166 -3.597,5.977 -3.764,2.913 -0.071,-1.316 -0.29,-1.149 -0.777,0.593 -0.907,3.244 -2.862,3.749 -3.41,0.882 -0.42,-2.201 -0.447,-2.19 -0.577,0.242 -0.235,4.409 -4.038,6.822 -4.254,2.7 -0.095,-1.796 -0.246,-1.662 -0.75,0.668 -0.735,3.395 -2.754,4.505 -3.432,1.887 -0.323,-1.246 -0.504,-1.001 -0.584,0.79 -0.127,2.832 -4.059,7.351 -4.186,4.81 -0.053,-1.056 -0.239,-1.011 -0.75,0.181 -0.374,0.872 -2.314,3.009 -4.312,4.75 -3.83,3.336 -9.072,4.274 -10.568,1.89 -0.44,-0.701 -2.037,-2.061 -3.55,-3.023 -1.833,-1.166 -2.783,-2.658 -2.85,-4.476 -0.095,-2.615 -0.126,-2.631 -0.758,-0.382 l -0.659,2.346 -1.897,-2.096 C 97.543,115.943 96.122,115 95.428,115 c -0.694,0 -1.713,-1.238 -2.266,-2.75 -0.673,-1.842 -1.03,-2.153 -1.083,-0.941 -0.109,2.503 -1.984,1.122 -3.639,-2.679 -1.248,-2.868 -1.365,-2.929 -1.401,-0.725 -0.037,2.308 -0.116,2.335 -1.959,0.667 -1.056,-0.956 -2.398,-3.388 -2.982,-5.405 l -1.062,-3.667 0.448,3.931 c 0.39,3.412 0.26,3.741 -0.984,2.498 -0.788,-0.788 -2.376,-3.232 -3.529,-5.431 -1.152,-2.199 -1.843,-3.174 -1.533,-2.166 m 21.037,4.914 c 0.734,0.411 4.159,1.47 7.612,2.355 7.043,1.804 13.463,1.359 19.91,-1.382 l 4.043,-1.719 h -16.449 c -9.047,0 -15.849,0.336 -15.116,0.746"
         id="path9"
         fill-opacity="0.652" />
      <path
         d="M 104.5,3.389 C 97.919,5.651 94.301,7.873 88.325,13.323 81.851,19.228 75.517,28.441 73.82,34.423 72.23,40.026 71.26,40.815 70.009,37.524 68.523,33.616 67.933,34.771 69,39.5 c 0.489,2.169 0.684,4.15 0.432,4.401 -0.251,0.251 -1.801,-0.537 -3.444,-1.752 C 64.344,40.934 63,40.364 63,40.881 63,42.012 68.768,47 70.077,47 70.585,47 71,47.675 71,48.5 c 0,2.25 -1.25,1.853 -6.296,-2 -6.026,-4.601 -7.264,-4.492 -1.914,0.168 4.803,4.184 5.943,7.514 1.597,4.666 -1.5,-0.983 -4.168,-1.62 -6.266,-1.496 C 52.953,50.143 44.262,46.896 34.566,41.04 18.988,31.63 13.727,30.252 7.051,33.833 c -4.05,2.172 -6.707,5.644 -5.085,6.646 0.596,0.368 0.96,0.118 0.809,-0.556 -0.151,-0.675 1.254,-2.283 3.123,-3.575 6.376,-4.406 14.48,-2.933 25.602,4.654 8.544,5.829 18.278,9.712 28.718,11.456 5.489,0.916 9.431,5.542 4.723,5.542 -1.132,0 -1.802,0.416 -1.488,0.924 0.314,0.509 -0.222,1.098 -1.191,1.309 -0.969,0.212 0.851,0.732 4.045,1.155 3.755,0.498 5.66,1.184 5.392,1.941 -0.454,1.282 -2.155,1.319 -5.113,0.112 -1.443,-0.589 -1.714,-0.458 -1.101,0.534 0.652,1.055 -0.564,1.217 -6.159,0.816 -8.15,-0.583 -14.2,-3.628 -20.089,-10.11 C 32.056,46.777 28.735,43.9 24.135,41.595 16.731,37.886 12.222,36.733 8.185,37.519 L 4.5,38.236 9.478,39.715 c 7.705,2.288 11.831,6.233 17.229,16.471 7.7,14.604 15.683,20.07 29.542,20.227 8.209,0.092 9.481,0.732 5.001,2.515 -1.513,0.602 -1.85,0.915 -0.75,0.697 1.1,-0.219 2.787,-0.722 3.75,-1.119 1.403,-0.577 1.75,-0.204 1.75,1.887 0,2.375 -0.378,2.621 -4.25,2.767 -3.81,0.144 -3.905,0.202 -0.92,0.569 2.583,0.318 3.191,0.774 2.707,2.034 -0.555,1.447 -0.419,1.44 1.249,-0.069 2.496,-2.26 3.092,-2.146 4.214,0.806 1.095,2.88 6.481,6.491 9.691,6.496 3.427,0.006 3.781,1.96 0.475,2.621 -2.781,0.556 -2.911,0.787 -2.078,3.691 0.489,1.703 1.614,3.793 2.501,4.645 1.472,1.413 1.555,1.274 0.953,-1.608 -0.388,-1.859 -0.224,-3.423 0.399,-3.809 0.606,-0.374 1.059,0.175 1.059,1.283 0,2.61 2.805,9.181 3.92,9.181 0.491,0 0.671,-0.849 0.399,-1.887 -0.271,-1.038 -0.053,-2.159 0.484,-2.491 0.538,-0.333 1.264,0.921 1.614,2.786 0.35,1.865 1.299,3.941 2.109,4.614 1.239,1.028 1.486,0.764 1.55,-1.65 l 0.076,-2.872 1.174,3.178 c 1.487,4.026 2.663,5.213 2.713,2.739 0.026,-1.26 0.578,-0.717 1.61,1.583 l 1.572,3.5 1.313,-3.5 1.314,-3.5 0.076,3.679 c 0.079,3.829 1.745,6.264 4.99,7.294 1.045,0.332 2.154,1.261 2.462,2.065 0.947,2.467 5.071,1.63 8.942,-1.813 2.849,-2.535 3.7,-4.062 3.763,-6.75 l 0.081,-3.475 1.182,2.66 c 1.022,2.298 1.418,2.487 2.919,1.39 1.028,-0.752 1.763,-2.655 1.8,-4.66 0.057,-3.035 0.158,-3.155 0.968,-1.14 1.51,3.757 3.307,2.738 2.646,-1.5 -0.531,-3.402 -0.454,-3.575 0.833,-1.858 0.78,1.04 1.597,2.39 1.817,3 0.664,1.842 1.596,0.204 1.861,-3.27 0.327,-4.294 1.812,-5.162 1.812,-1.059 0,2.715 0.22,2.999 1.5,1.937 0.825,-0.685 1.5,-2.09 1.5,-3.122 0,-1.033 0.45,-1.878 1,-1.878 0.55,0 1,0.702 1,1.559 0,3.031 2.004,0.271 2.625,-3.616 0.347,-2.169 1.082,-3.943 1.634,-3.943 0.592,0 0.765,1.467 0.422,3.581 -0.495,3.05 -0.367,3.403 0.869,2.378 0.797,-0.662 1.45,-2.754 1.45,-4.649 0,-2.903 -0.293,-3.352 -1.859,-2.855 -2.268,0.72 -5.338,-0.327 -4.576,-1.56 0.304,-0.492 1.539,-0.897 2.744,-0.899 3.26,-0.005 8.603,-3.633 9.734,-6.61 0.781,-2.053 1.511,-2.513 3.411,-2.15 1.329,0.254 3.008,0.087 3.731,-0.372 0.892,-0.565 0.936,-0.838 0.136,-0.849 C 161.636,82.993 159,80.13 159,78.322 c 0,-1.064 0.538,-1.32 1.75,-0.833 3.859,1.55 4.834,1.76 3.393,0.73 -1.747,-1.248 -0.607,-1.796 4.357,-2.093 5.815,-0.347 13.853,-4.584 18.315,-9.653 2.137,-2.428 5.493,-7.753 7.457,-11.833 4.034,-8.382 7.993,-12.021 16.039,-14.745 4.86,-1.646 4.994,-1.78 2.411,-2.429 -6.202,-1.556 -18.911,3.806 -25.368,10.703 -11.583,12.373 -18.19,16.8 -25.104,16.821 -5.786,0.018 -3.437,2.007 2.5,2.117 l 5.75,0.107 -4.5,1.048 -4.5,1.049 5.5,1.746 c 3.694,1.173 4.679,1.777 3,1.839 -3.701,0.137 -9.161,-1.645 -12,-3.917 l -2.5,-2.001 2.806,-2.489 c 1.543,-1.369 4.018,-2.541 5.5,-2.605 1.945,-0.084 2.167,-0.251 0.799,-0.601 -1.547,-0.396 -1.639,-0.666 -0.5,-1.465 0.991,-0.696 0.599,-0.806 -1.355,-0.38 -2.739,0.598 -3.878,-0.781 -1.5,-1.815 0.688,-0.299 0.012,-0.288 -1.5,0.025 -1.596,0.33 -2.75,0.134 -2.75,-0.467 0,-1.361 4.889,-5.181 6.631,-5.181 3.216,0 14.484,-4.695 22.184,-9.243 12.199,-7.205 16.005,-8.71 22.091,-8.735 4.283,-0.017 6.104,0.511 8.768,2.543 1.85,1.411 3.103,2.986 2.786,3.5 -0.318,0.514 -0.101,0.935 0.481,0.935 1.215,0 1.375,-1.97 0.294,-3.624 -0.404,-0.618 -2.31,-2.079 -4.235,-3.246 -6.496,-3.939 -15.437,-2.191 -27.5,5.375 -8.509,5.337 -17.963,9.58 -22.215,9.969 -2.236,0.205 -4.995,0.952 -6.13,1.661 -4.064,2.538 -3.525,-0.33 0.788,-4.195 5.231,-4.688 4.601,-5.099 -1.443,-0.94 -4.983,3.428 -5.5,3.569 -5.5,1.5 0,-0.825 0.591,-1.5 1.313,-1.5 0.722,0 2.635,-1.423 4.25,-3.163 2.606,-2.806 2.658,-2.975 0.464,-1.5 -3.57,2.402 -5.324,2.17 -4.44,-0.587 1.172,-3.652 2.233,-8.75 1.821,-8.75 -0.21,0 -1.053,1.607 -1.874,3.572 -1.655,3.962 -2.969,3.859 -3.984,-0.313 C 150.279,30.041 143.077,19.287 137.243,13.897 126.491,3.965 114.252,0.037 104.5,3.389 m -0.547,1.914 C 89.408,10.724 73.989,31.114 74.003989,44.909 l 0.003,3.591 1.911,-3.133 c 2.16,-3.542 5.78,-6.386 8.055,-6.328 0.84,0.022 0.156,0.637 -1.521,1.367 C 79.013,41.904 76,45.91 76,48.985 v 2.056 L 79.96,49.02 C 82.487,47.731 85.876,47 89.323,47 c 4.497,0 6.035,0.503 9.177,3 3.621,2.878 4.179,3 13.687,3 10.036,0 13.935,-1.032 16.758,-4.434 2.096,-2.525 10.782,-2.04 16.636,0.93 2.705,1.373 5.08,2.498 5.277,2.5 0.738,0.008 -1.05,-5.583 -2.501,-7.826 -0.829,-1.282 -2.936,-2.951 -4.682,-3.711 -1.789,-0.778 -2.426,-1.398 -1.46,-1.42 0.944,-0.021 3.321,1.371 5.284,3.094 1.962,1.723 3.725,2.961 3.917,2.75 0.192,-0.211 -0.26,-2.728 -1.003,-5.594 C 145.932,22.018 127.864,5.114 113,4.287 109.975,4.118 105.904,4.575 103.953,5.303 M 98.5,35.474 c -5.208,3.208 -3.918,3.224 2.096,0.026 2.586,-1.375 4.072,-2.498 3.303,-2.495006 C 103.13,33.008 100.7,34.119 98.5,35.474 m 22.25,-1.812 c 0.688,0.278 1.813,0.278 2.5,0 0.688,-0.277 0.125,-0.504 -1.25,-0.504 -1.375,0 -1.937,0.227 -1.25,0.504 m -12.481,1.031 c 0.973,0.254 2.323,0.237 3,-0.037 0.677,-0.274 -0.119,-0.481 -1.769,-0.461 -1.65,0.02 -2.204,0.244 -1.231,0.498 m 7.481,-0.031 c 0.688,0.278 1.813,0.278 2.5,0 0.688,-0.277 0.125,-0.504 -1.25,-0.504 -1.375,0 -1.937,0.227 -1.25,0.504 m 11.111,1.262 c 1.298,1.142 3.098,2.073 4,2.070007 1.481,-0.006 0.621,-0.596007 -5.108,-3.509007 -0.689,-0.351 -0.191,0.297 1.108,1.439 M 88.25,38.689 c 0.963,0.252 2.537,0.252 3.5,0 0.963,-0.251 0.175,-0.457 -1.75,-0.457 -1.925,0 -2.713,0.206 -1.75,0.457 m 46,0 c 0.963,0.252 2.537,0.252 3.5,0 0.963,-0.251 0.175,-0.457 -1.75,-0.457 -1.925,0 -2.713,0.206 -1.75,0.457 M 4.75,41.662 c 0.688,0.278 1.813,0.278 2.5,0 0.688,-0.277 0.125,-0.504 -1.25,-0.504 -1.375,0 -1.937,0.227 -1.25,0.504 m 211.063,0.021 c 0.721,0.289 1.584,0.253 1.916,-0.079 0.332,-0.332 -0.258,-0.568 -1.312,-0.525 -1.165,0.048 -1.402,0.285 -0.604,0.604 M 11.5,43.655 c 1.65,0.866 4.799,3.211 6.999,5.21 L 22.497,52.5 18.999,48.665 C 15.733,45.085 11.14,41.948 9.3,42.04 c -0.44,0.022 0.55,0.749 2.2,1.615 m 197.007,0.334 c -0.35,0.566 0.051,0.734 0.941,0.393 1.732,-0.665 2.049,-1.382 0.611,-1.382 -0.518,0 -1.216,0.445 -1.552,0.989 m -6.986,6.198 C 197.212,54.98 193.275,61 194.449,61 c 0.275,0 1.154,-1.266 1.954,-2.813 0.8,-1.547 3.553,-5.147 6.118,-8 2.566,-2.853 4.439,-5.187 4.164,-5.187 -0.275,0 -2.598,2.334 -5.164,5.187 M 80.929,57.976 c -1.965,1.039 -4.169,2.609 -4.9,3.489 -1.265,1.524 -5.49,12.442 -6.709,17.336 -1.102,4.428 5.308,8.819 13.778,9.437 3.568,0.26 3.594,0.295 3.171,4.262 -0.27,2.54 0.106,4.71 1.031,5.944 1.42,1.895 1.53,1.898 4.252,0.114 2.171,-1.422 4.428,-1.78 10.121,-1.603 14.761,0.457 24.118,0.004 26.077,-1.264 0.689,-0.446 1.25,-0.385 1.25,0.136 0,1.205 6.959,4.547 7.773,3.733 0.336,-0.336 -1.547,-2.737 -4.184,-5.335 -2.637,-2.599 -5.931,-6.664 -7.321,-9.033 l -2.526,-4.308 -2.621,2.957 c -4.727,5.331 -10.062,4.823 -15.939,-1.519 -3.672,-3.964 -3.74,-3.95 5.492,-1.195 3.637,1.085 4.699,1.008 8.261,-0.598 l 4.088,-1.843 4.057,4.407 c 2.232,2.424 5.666,6.77 7.631,9.657 1.965,2.887 4.017,5.25 4.561,5.25 0.578,0 0.78,-1.846 0.487,-4.449 -0.48,-4.257 -0.378,-4.472 2.37,-5 1.579,-0.303 4.232,-0.814 5.895,-1.136 3.894,-0.753 8.976,-5.029 8.976,-7.554 0,-1.078 -0.747,-3.4 -1.659,-5.161 -0.913,-1.76 -2.16,-5.45 -2.771,-8.2 -1.013,-4.561 -1.548,-5.24 -6.09,-7.727 -7.314,-4.004 -12.588,-3.744 -18.97,0.936 -2.745,2.013 -5.976,3.702 -7.181,3.755 -1.851,0.081 -2.109,-0.315 -1.661,-2.552 0.45,-2.254 0.079,-2.805 -2.501,-3.704 -4.93,-1.718 -7.164,-0.58 -7.182,3.659 -0.012,2.667 -0.266,3.236 -0.959,2.141 -0.722,-1.141 -1.218,-1.216 -2.117,-0.317 -0.899,0.899 -2.395,0.252 -6.382,-2.759 -4.276,-3.227 -5.999,-3.924 -9.618,-3.888 -2.425,0.025 -6.016,0.894 -7.98,1.932 m 8.34,0.717 c 0.973,0.254 2.323,0.237 3,-0.037 0.677,-0.274 -0.119,-0.481 -1.769,-0.461 -1.65,0.02 -2.204,0.244 -1.231,0.498 m 44,0 c 0.973,0.254 2.323,0.237 3,-0.037 0.677,-0.274 -0.119,-0.481 -1.769,-0.461 -1.65,0.02 -2.204,0.244 -1.231,0.498 m -75.456,0.99 c 0.721,0.289 1.584,0.253 1.916,-0.079 0.332,-0.332 -0.258,-0.568 -1.312,-0.525 -1.165,0.048 -1.402,0.285 -0.604,0.604 m 24.937,0.889 c -3.877,2.103 -3.438,2.829 0.5,0.827 3.77,-1.918 4.437,-2.414 3.167,-2.359 -0.505,0.022 -2.154,0.711 -3.667,1.532 m 55.333,-1.199 C 139.112,60.294 145,62.999 145,62.551 145,61.975 139.456,59 138.383,59 c -0.394,0 -0.529,0.168 -0.3,0.373 m -111.519,1.92 c 0.376,0.986 0.935,1.541 1.243,1.233 0.308,-0.307 0.001,-1.114 -0.683,-1.793 -0.988,-0.98 -1.102,-0.865 -0.56,0.56 m 58.686,0.692 c -3.375,1.426 -2.708,2.071 0.857,0.828 2.233,-0.778 4.104,-0.777 6.653,0.005 2.149,0.66 3.157,0.699 2.557,0.099 C 93.852,61.452 87.83,60.894 85.25,61.985 M 132,62.014 c -1.055,0.692 -0.462,0.793 2,0.341 4.313,-0.791 5.126,-1.36 1.917,-1.34 -1.329,0.009 -3.092,0.458 -3.917,0.999 m 7.083,0.359 C 140.112,63.294 146,65.999 146,65.551 146,64.975 140.456,62 139.383,62 c -0.394,0 -0.529,0.168 -0.3,0.373 m 52.871,1.713 c -0.614,1.147 -0.928,2.274 -0.697,2.504 0.23,0.23 0.932,-0.708 1.559,-2.086 1.378,-3.024 0.707,-3.35 -0.862,-0.418 M 82.25,67.662 C 79.912,68.49 78,69.781 78,70.532 c 0,1.735 5.699,6.017 9.061,6.808 3.263,0.768 9.317,-0.882 11.081,-3.021 1.223,-1.483 1.141,-1.531 -0.826,-0.483 C 94.302,75.442 86.641,75.295 82.468,73.551 77.234,71.364 78.27,70.643 85.651,71.332 92.134,71.937 101,70.581 101,68.984 101,68.29 89.731,65.88 87.418,66.079 c -0.505,0.043 -2.83,0.756 -5.168,1.583 m 47,-0.467 c -2.887,0.527 -5.25,1.32 -5.25,1.763 0,1.62 8.819,2.984 15.349,2.374 7.381,-0.689 8.417,0.032 3.183,2.219 -4.001,1.672 -10.258,1.884 -13.967,0.474 -4.361,-1.658 -2.824,-0.027 1.975,2.096 5.071,2.243 8.992,1.608 13.898,-2.251 3.704,-2.913 3.179,-4.472 -2.116,-6.276 -5.166,-1.76 -5.545,-1.772 -13.072,-0.399 m -99.686,1.098 c 0.376,0.986 0.935,1.541 1.243,1.233 0.308,-0.307 0.001,-1.114 -0.683,-1.793 -0.988,-0.98 -1.102,-0.865 -0.56,0.56 M 62,68.436 l 4.5,1.24 -6,1.394 c -5.836,1.356 -5.896,1.403 -2.209,1.725 4.005,0.349 10.804,-2.341 11.488,-4.545 0.284,-0.916 -1.305,-1.224 -5.946,-1.152 L 57.5,67.196 62,68.436 M 188.5,71 c -0.853,1.65 -1.326,3 -1.051,3 0.275,0 1.198,-1.35 2.051,-3 0.853,-1.65 1.326,-3 1.051,-3 -0.275,0 -1.198,1.35 -2.051,3 M 31,71.941 c 0,0.518 0.445,1.216 0.989,1.552 0.566,0.35 0.734,-0.051 0.393,-0.941 C 31.717,70.82 31,70.503 31,71.941 m 3,2.409 c 0,0.231 1.18,1.193 2.623,2.139 1.443,0.945 2.318,1.224 1.944,0.62 C 37.854,75.955 34,73.626 34,74.35 m 148.861,1.709 -2.361,2.06 2.75,-1.675 c 1.512,-0.921 2.75,-1.847 2.75,-2.059 0,-0.781 -0.835,-0.335 -3.139,1.674 m -38.812,2.019 c -5.27,3.46 -7.315,3.594 -13.61,0.896 -3.808,-1.632 -4.47,-1.717 -3.406,-0.434 3.668,4.42 11.557,5.751 16.021,2.703 3.039,-2.074 7.261,-6.276 6.196,-6.165 -0.412,0.043 -2.753,1.393 -5.201,3 M 77.668,77.577 c 0.87,2.266 6.836,5.423 10.25,5.423 3.652,0 7.779,-1.903 10.393,-4.791 1.627,-1.798 1.337,-1.759 -2.922,0.397 -5.927,3.001 -8.793,2.997 -14.07,-0.021 -2.698,-1.543 -3.994,-1.9 -3.651,-1.008 M 40,78.35 c 0,0.231 1.18,1.193 2.623,2.139 1.443,0.945 2.318,1.224 1.944,0.62 C 43.854,79.955 40,77.626 40,78.35 m 136.861,1.709 -2.361,2.06 2.75,-1.675 c 1.512,-0.921 2.75,-1.847 2.75,-2.059 0,-0.781 -0.835,-0.335 -3.139,1.674 M 94.878,85.832 C 89.912,91.402 86.402,97 87.877,97 c 1.668,0 12.808,-14.649 11.86,-15.597 -0.265,-0.264 -2.452,1.729 -4.859,4.429 M 47,83 c 0.825,0.533 2.175,0.945 3,0.914 C 50.989,83.878 50.819,83.567 49.5,83 46.751,81.819 45.172,81.819 47,83 m 124,0 c -0.825,0.533 -1.05,0.969 -0.5,0.969 0.55,0 1.675,-0.436 2.5,-0.969 0.825,-0.533 1.05,-0.969 0.5,-0.969 -0.55,0 -1.675,0.436 -2.5,0.969 M 71.493,98.803 c 0.728,4.855 2.995,10.197 4.327,10.197 0.423,0 6.374,4.505 13.224,10.012 12.602,10.128 16.222,11.977 23.456,11.977 7.172,0 10.829,-1.822 22.526,-11.224 6.34,-5.096 12.546,-9.94 13.791,-10.765 3.701,-2.452 7.287,-15.868 3.943,-14.753 -0.75,0.25 -1.122,1.776 -0.941,3.869 0.243,2.828 -0.356,4.13 -3.296,7.157 -1.976,2.035 -6.197,5.469 -9.38,7.63 -3.183,2.161 -7.779,5.762 -10.215,8.002 -5.689,5.232 -11.535,8.098 -16.494,8.085 -3.957,-0.01 -13.599,-3.829 -14.874,-5.892 -0.376,-0.61 -4.971,-4.521 -10.21,-8.692 C 77.816,106.816 75,102.995 75,97.649 c 0,-1.614 -0.698,-2.598 -2.104,-2.966 -1.984,-0.519 -2.063,-0.285 -1.403,4.12 m 51.007,3.308 c -2.2,0.484 -9.625,0.615 -16.5,0.291 -7.861,-0.37 -12.129,-0.238 -11.5,0.356 1.735,1.639 12.921,4.242 18.227,4.242 5.111,0 16.273,-3.525 16.273,-5.139 0,-0.998 -1.011,-0.959 -6.5,0.25"
         id="path11"
         fill-opacity="0.963" />
    </g>
  </g>
  <metadata
     id="metadata836">
    <rdf:RDF>
      <cc:Work
         rdf:about="">
        <dc:title>yoda</dc:title>
      </cc:Work>
    </rdf:RDF>
  </metadata>
</svg>
